MimicMSK_OpenSim_coordinates_FK_5s
version=1
nRows=8
nColumns=129
inDegrees=yes

# SIMM Motion File Header:
name MimicMSK_OpenSim_coordinates_FK_5s
datacolumns 129
datarows 8
otherdata 1
range 1.00112000 1.42526000
endheader
time	root_rx	root_ry	root_rz	root_tx	root_ty	root_tz	flex_extension	lat_bending	axial_rotation	Abs_r3	Abs_t1	Abs_t2	L4_L5_FE	L4_L5_LB	L4_L5_AR	L3_L4_FE	L3_L4_LB	L3_L4_AR	L2_L3_FE	L2_L3_LB	L2_L3_AR	L1_L2_FE	L1_L2_LB	L1_L2_AR	sternoclavicular_r2_r	sternoclavicular_r3_r	unrotscap_r3_r	unrotscap_r2_r	acromioclavicular_r2_r	acromioclavicular_r3_r	acromioclavicular_r1_r	unrothum_r1_r	unrothum_r3_r	unrothum_r2_r	elv_angle_r	shoulder_elv_r	shoulder1_r2_r	shoulder_rot_r	elbow_flex_r	pro_sup_r	deviation_r	flexion_r	cmc_flexion_r	cmc_abduction_r	mp_flexion_r	ip_flexion_r	mcp2_flexion_r	mcp2_abduction_r	pm2_flexion_r	md2_flexion_r	mcp3_flexion_r	mcp3_abduction_r	pm3_flexion_r	md3_flexion_r	mcp4_flexion_r	mcp4_abduction_r	pm4_flexion_r	md4_flexion_r	mcp5_flexion_r	mcp5_abduction_r	pm5_flexion_r	md5_flexion_r	sternoclavicular_r2_l	sternoclavicular_r3_l	unrotscap_r3_l	unrotscap_r2_l	acromioclavicular_r2_l	acromioclavicular_r3_l	acromioclavicular_r1_l	unrothum_r1_l	unrothum_r3_l	unrothum_r2_l	elv_angle_l	shoulder_elv_l	shoulder1_r2_l	shoulder_rot_l	elbow_flex_l	pro_sup_l	deviation_l	flexion_l	cmc_flexion_l	cmc_abduction_l	mp_flexion_l	ip_flexion_l	mcp2_flexion_l	mcp2_abduction_l	pm2_flexion_l	md2_flexion_l	mcp3_flexion_l	mcp3_abduction_l	pm3_flexion_l	md3_flexion_l	mcp4_flexion_l	mcp4_abduction_l	pm4_flexion_l	md4_flexion_l	mcp5_flexion_l	mcp5_abduction_l	pm5_flexion_l	md5_flexion_l	hip_flexion_r	hip_adduction_r	hip_rotation_r	knee_angle_r	knee_angle_rotation2_r	knee_angle_rotation3_r	knee_angle_translation2_r	knee_angle_translation1_r	ankle_angle_r	subtalar_angle_r	mtp_angle_r	knee_angle_beta_rotation1_r	knee_angle_beta_translation2_r	knee_angle_beta_translation1_r	hip_flexion_l	hip_adduction_l	hip_rotation_l	knee_angle_l	knee_angle_rotation2_l	knee_angle_rotation3_l	knee_angle_translation2_l	knee_angle_translation1_l	ankle_angle_l	subtalar_angle_l	mtp_angle_l	knee_angle_beta_rotation1_l	knee_angle_beta_translation2_l	knee_angle_beta_translation1_l
1.00112000	-89.91772483	0.00376547	0.01073386	0.00000680	0.82493609	-0.00016282	0.04308418	0.00199846	-0.00936504	0.02769882	0.00000000	0.00000000	0.00797057	0.00036192	-0.00035381	0.00878917	0.00049022	-0.00035381	0.00995245	0.00049982	-0.00029135	0.01098647	0.00037571	-0.00027056	-0.00120715	0.00051129	-0.00051129	0.00120715	-0.00024442	0.00197533	0.00088790	-0.00088790	-0.00197533	0.00024442	-0.00004129	0.00498821	0.00004129	0.41646223	-0.13485106	-0.39554699	0.24444071	-0.02165659	20.91279824	2.06731941	-64.78905801	41.34825286	0.35443694	-0.09153322	-0.07955178	-0.05130896	0.23804230	-0.06549780	0.31349620	-0.39019203	0.09124387	-0.06746554	-0.07282392	-0.06167637	0.46893309	-0.16820755	-0.57130349	-0.07645436	-0.00085869	0.00036370	-0.00036370	0.00085869	-0.00017387	0.00140513	0.00063160	-0.00063160	-0.00140513	0.00017387	0.00016800	0.00354830	-0.00016800	0.35959946	-0.08660064	-0.33270173	0.06580439	-0.65672322	-4.50609116	0.17954201	17.37238065	-74.45757860	1.52186605	0.12594156	-0.02099958	0.19642933	1.13360902	-0.00671335	1.22506832	-0.91445915	0.66590139	-0.43115362	1.24540690	-0.62782973	0.77029490	-0.55634908	0.08816598	0.05385380	0.21861871	0.00278656	-0.06055034	0.21406721	0.01690553	0.07896277	0.00002195	0.00001175	-3.03617896	-0.84587533	7.64348476	0.60619932	-0.01101024	0.05236261	0.23718546	-0.01505899	0.03212146	0.25941336	0.02048004	-0.09565468	-0.00002660	0.00001421	-2.98801154	-0.78931188	7.62327000	0.60683050	-0.01104879	0.05235050
1.11902000	-89.90618713	0.00429790	0.01258015	0.00000832	0.82493035	-0.00018636	0.04911200	0.00227879	-0.01098188	0.03157410	0.00000000	0.00000000	0.00908572	0.00041269	-0.00041490	0.01001885	0.00055899	-0.00041490	0.01134487	0.00056993	-0.00034165	0.01252356	0.00042841	-0.00031727	-0.00138519	0.00058670	-0.00058670	0.00138519	-0.00028047	0.00226668	0.00101886	-0.00101886	-0.00226668	0.00028047	-0.00004284	0.00572394	0.00004284	0.47679995	-0.15211636	-0.45491926	0.28253427	-0.02652213	22.26661699	1.73884412	-69.84238809	42.95577696	0.40801773	-0.11101791	-0.09170618	-0.05898338	0.27330639	-0.08181400	0.35932774	-0.44779394	0.10174237	-0.08462719	-0.08035103	-0.07051562	0.53739816	-0.19821268	-0.65638610	-0.08800759	-0.00098489	0.00041715	-0.00041715	0.00098489	-0.00019942	0.00161164	0.00072442	-0.00072442	-0.00161164	0.00019942	0.00018956	0.00406979	-0.00018956	0.41230033	-0.09918787	-0.38075326	0.07311087	-0.75134893	-4.84604897	0.32383337	18.29437201	-81.94926633	1.73842879	0.14588850	-0.02395877	0.22269518	1.29690539	-0.00613059	1.39970994	-1.04632999	0.76036042	-0.49375356	1.43894082	-0.72377694	0.88226042	-0.63396068	0.09897372	0.06128929	0.24805917	0.00346976	-0.07004063	0.22937924	0.01811280	0.08460048	0.00002352	0.00001258	-3.74261111	-1.03875072	9.28705732	0.60642295	-0.01102326	0.05235853	0.27001417	-0.01644409	0.03383760	0.28331677	0.02236332	-0.10444863	-0.00002904	0.00001551	-3.68323083	-0.97723230	9.26790677	0.60712546	-0.01106910	0.05234410
1.23692000	-89.89448285	0.00483752	0.01451174	0.00000997	0.82492493	-0.00021035	0.05522358	0.00256243	-0.01267399	0.03550324	0.00000000	0.00000000	0.01021636	0.00046406	-0.00047882	0.01126561	0.00062856	-0.00047882	0.01275665	0.00064086	-0.00039429	0.01408201	0.00048174	-0.00036615	-0.00157078	0.00066531	-0.00066531	0.00157078	-0.00031805	0.00257037	0.00115537	-0.00115537	-0.00257037	0.00031805	-0.00004396	0.00649084	0.00004396	0.53894908	-0.16973957	-0.51635698	0.32223711	-0.03178558	23.46116712	1.32332288	-74.58208804	44.25946788	0.46305717	-0.13198892	-0.10420831	-0.06686659	0.30946750	-0.09964487	0.40602876	-0.50666416	0.11207919	-0.10342043	-0.08757064	-0.07955577	0.60718003	-0.22984818	-0.74342573	-0.09983144	-0.00111619	0.00047276	-0.00047276	0.00111619	-0.00022600	0.00182649	0.00082100	-0.00082100	-0.00182649	0.00022600	0.00021151	0.00461234	-0.00021151	0.46667071	-0.11218691	-0.43025546	0.08037539	-0.84841853	-5.15387671	0.48643019	18.98475567	-89.20647256	1.95998846	0.16647913	-0.02702329	0.24949016	1.46420148	-0.00543922	1.57851498	-1.18141766	0.85671794	-0.55836398	1.64112741	-0.82366713	0.99700235	-0.71307279	0.10963277	0.06880657	0.27768995	0.00421237	-0.07984351	0.24218806	0.01912250	0.08931548	0.00002483	0.00001328	-4.50567770	-1.24639100	10.97788018	0.60660179	-0.01103415	0.05235511	0.30322238	-0.01771743	0.03504526	0.30524905	0.02409072	-0.11251445	-0.00003129	0.00001670	-4.43408426	-1.18038809	10.96167139	0.60737318	-0.01108774	0.05233822
1.35482000	-89.88260008	0.00538446	0.01652721	0.00001173	0.82491973	-0.00023478	0.06142569	0.00284941	-0.01444007	0.03949058	0.00000000	0.00000000	0.01136375	0.00051603	-0.00054555	0.01253084	0.00069896	-0.00054555	0.01418934	0.00071264	-0.00044923	0.01566355	0.00053569	-0.00041717	-0.00176392	0.00074711	-0.00074711	0.00176392	-0.00035716	0.00288641	0.00129743	-0.00129743	-0.00288641	0.00035716	-0.00004475	0.00728892	0.00004475	0.60291039	-0.18775904	-0.57981674	0.36356542	-0.03743113	24.51112906	0.82427674	-79.04862634	45.30081703	0.51950614	-0.15442064	-0.11704816	-0.07495179	0.34650145	-0.11896072	0.45356154	-0.56675894	0.12226154	-0.12381039	-0.09449609	-0.08879576	0.67821921	-0.26308078	-0.83235733	-0.11190390	-0.00125265	0.00053056	-0.00053056	0.00125265	-0.00025364	0.00204979	0.00092137	-0.00092137	-0.00204979	0.00025364	0.00023387	0.00517624	-0.00023387	0.52270298	-0.12560421	-0.48120627	0.08763997	-0.94791658	-5.43398052	0.66550117	19.45523448	-96.28325794	2.18649790	0.18767166	-0.03018132	0.27683180	1.63544866	-0.00468032	1.76148883	-1.31971323	0.95492589	-0.62501160	1.85201495	-0.92754357	1.11447219	-0.79369893	0.12014798	0.07640595	0.30753476	0.00501200	-0.08996768	0.25256949	0.01994071	0.09313623	0.00002589	0.00001384	-5.32280524	-1.46798624	12.66907495	0.60674125	-0.01104297	0.05235233	0.33683147	-0.01888430	0.03574519	0.32528091	0.02566795	-0.11987888	-0.00003334	0.00001778	-5.23801199	-1.39794317	12.65840947	0.60758029	-0.01110476	0.05233284
1.37882000	-89.88015854	0.00549668	0.01694760	0.00001210	0.82491870	-0.00023981	0.06269977	0.00290823	-0.01480850	0.04030968	0.00000000	0.00000000	0.01159946	0.00052668	-0.00055947	0.01279075	0.00071339	-0.00055947	0.01448365	0.00072735	-0.00046069	0.01598844	0.00054675	-0.00042782	-0.00180415	0.00076416	-0.00076416	0.00180415	-0.00036530	0.00295225	0.00132702	-0.00132702	-0.00295225	0.00036530	-0.00004488	0.00745518	0.00004488	0.61615118	-0.19147830	-0.59297748	0.37217883	-0.03862580	24.70820777	0.71271914	-79.92715655	45.48314468	0.53116489	-0.15916436	-0.11970228	-0.07662169	0.35414446	-0.12307283	0.46333563	-0.57913764	0.12431535	-0.12815436	-0.09587066	-0.09070090	0.69282791	-0.27003885	-0.85068575	-0.11438987	-0.00128107	0.00054260	-0.00054260	0.00128107	-0.00025939	0.00209629	0.00094227	-0.00094227	-0.00209629	0.00025939	0.00023847	0.00529366	-0.00023847	0.53431079	-0.12838695	-0.49175407	0.08912225	-0.96846475	-5.48795558	0.70381898	19.52489917	-97.70587294	2.23320440	0.19205544	-0.03083432	0.28246514	1.67078461	-0.00452110	1.79924310	-1.34825488	0.97513784	-0.63882895	1.89600944	-0.94917904	1.13871233	-0.81029646	0.12227114	0.07796282	0.31363769	0.00518156	-0.09206877	0.25439053	0.02008422	0.09380637	0.00002608	0.00001394	-5.49555246	-1.51473600	13.00872246	0.60676521	-0.01104452	0.05235185	0.34372327	-0.01910912	0.03582503	0.32913035	0.02597099	-0.12129381	-0.00003373	0.00001799	-5.40795297	-1.44392300	12.99958801	0.60761799	-0.01110803	0.05233180
1.40265000	-89.87772621	0.00560842	0.01736843	0.00001247	0.82491768	-0.00024482	0.06396895	0.00296678	-0.01517732	0.04112564	0.00000000	0.00000000	0.01183426	0.00053728	-0.00057340	0.01304967	0.00072775	-0.00057340	0.01477683	0.00074199	-0.00047217	0.01631208	0.00055775	-0.00043847	-0.00184441	0.00078121	-0.00078121	0.00184441	-0.00037346	0.00301813	0.00135663	-0.00135663	-0.00301813	0.00037346	-0.00004500	0.00762154	0.00004500	0.62937350	-0.19518935	-0.60612694	0.38079975	-0.03982715	24.89854175	0.59865039	-80.78981065	45.65465812	0.54279788	-0.16393424	-0.12235129	-0.07828790	0.36176876	-0.12721633	0.47307395	-0.59147824	0.12634855	-0.13253244	-0.09722407	-0.09260085	0.70738336	-0.27701276	-0.86896095	-0.11686769	-0.00130950	0.00055464	-0.00055464	0.00130950	-0.00026515	0.00214281	0.00096318	-0.00096318	-0.00214281	0.00026515	0.00024306	0.00541114	-0.00024306	0.54590505	-0.13116763	-0.50228723	0.09059613	-0.98896780	-5.54060783	0.74246399	19.58549397	-99.11340278	2.27978446	0.19643128	-0.03148587	0.28808204	1.70603284	-0.00436213	1.83690425	-1.37672802	0.99528179	-0.65263423	1.94005477	-0.97082858	1.16289229	-0.82684051	0.12437380	0.07951214	0.31970775	0.00535216	-0.09416894	0.25610209	0.02021910	0.09443621	0.00002626	0.00001403	-5.66920278	-1.56169627	13.34339531	0.60678759	-0.01104597	0.05235139	0.35058423	-0.01932820	0.03588318	0.33287748	0.02626596	-0.12267104	-0.00003412	0.00001820	-5.57877704	-1.49013588	13.33593716	0.60765405	-0.01111121	0.05233080
1.41634000	-89.87632447	0.00567278	0.01761184	0.00001269	0.82491709	-0.00024771	0.06470034	0.00300049	-0.01539066	0.04159585	0.00000000	0.00000000	0.01196956	0.00054339	-0.00058146	0.01319887	0.00073602	-0.00058146	0.01494578	0.00075042	-0.00047880	0.01649859	0.00056409	-0.00044464	-0.00186770	0.00079107	-0.00079107	0.00186770	-0.00037817	0.00305623	0.00137376	-0.00137376	-0.00305623	0.00037817	-0.00004506	0.00771775	0.00004506	0.63700745	-0.19733066	-0.61372189	0.38578592	-0.04052445	25.00556116	0.53160428	-81.28137500	45.74899762	0.54950987	-0.16670283	-0.12388005	-0.07924927	0.36616703	-0.12962522	0.47868640	-0.59859369	0.12751448	-0.13507811	-0.09799686	-0.09369665	0.71577213	-0.28105058	-0.87949967	-0.11829612	-0.00132594	0.00056161	-0.00056161	0.00132594	-0.00026847	0.00216971	0.00097528	-0.00097528	-0.00216971	0.00026847	0.00024570	0.00547908	-0.00024570	0.55260019	-0.13277390	-0.50836860	0.09144437	-1.00079789	-5.57045901	0.76494163	19.61647792	-99.92030323	2.30664999	0.19895674	-0.03186175	0.29132115	1.72636615	-0.00427049	1.85862992	-1.39315422	1.00689397	-0.66060806	1.96553498	-0.98334800	1.17684072	-0.83637871	0.12557994	0.08040424	0.32320147	0.00545123	-0.09538243	0.25704248	0.02029321	0.09478226	0.00002635	0.00001409	-5.76996731	-1.58893046	13.53441521	0.60679983	-0.01104677	0.05235114	0.35453598	-0.01945226	0.03590705	0.33499758	0.02643284	-0.12345023	-0.00003433	0.00001831	-5.67789916	-1.51694813	13.52799472	0.60767417	-0.01111302	0.05233023
1.42526000	-89.87541004	0.00571476	0.01777098	0.00001283	0.82491671	-0.00024960	0.06517745	0.00302247	-0.01553015	0.04190258	0.00000000	0.00000000	0.01205783	0.00054737	-0.00058673	0.01329620	0.00074141	-0.00058673	0.01505599	0.00075592	-0.00048314	0.01662025	0.00056823	-0.00044867	-0.00188291	0.00079752	-0.00079752	0.00188291	-0.00038125	0.00308113	0.00138495	-0.00138495	-0.00308113	0.00038125	-0.00004510	0.00778064	0.00004510	0.64199287	-0.19872860	-0.61868300	0.38904566	-0.04098128	25.07433817	0.48735710	-81.59988094	45.80879002	0.55389147	-0.16851662	-0.12487816	-0.07987685	0.36903792	-0.13120485	0.48234772	-0.60323679	0.12827280	-0.13674760	-0.09849819	-0.09441184	0.72124464	-0.28369197	-0.88637714	-0.11922812	-0.00133668	0.00056616	-0.00056616	0.00133668	-0.00027065	0.00218730	0.00098318	-0.00098318	-0.00218730	0.00027065	0.00024743	0.00552348	-0.00024743	0.55697297	-0.13382321	-0.51234011	0.09199729	-1.00852072	-5.58974297	0.77968423	19.63515532	-100.44505208	2.32418394	0.20060562	-0.03210710	0.29343501	1.73963818	-0.00421073	1.87281101	-1.40387648	1.01447033	-0.66581676	1.98219484	-0.99153179	1.18594516	-0.84260244	0.12636456	0.08098589	0.32547886	0.00551614	-0.09617530	0.25763797	0.02034013	0.09500139	0.00002641	0.00001412	-5.83596889	-1.60676287	13.65824486	0.60680755	-0.01104728	0.05235098	0.35711304	-0.01953234	0.03591883	0.33636524	0.02654049	-0.12395287	-0.00003447	0.00001838	-5.74282400	-1.53450872	13.65253046	0.60768704	-0.01111418	0.05232986
